<svg width="135" height="39" viewBox="0 0 135 39" fill="none" xmlns="http://www.w3.org/2000/svg">
<path fill-rule="evenodd" clip-rule="evenodd" d="M112.72 0V5.52H128.96V21.8667H134.48V5.52V0.133333V0H112.72Z" fill="white"/>
<path fill-rule="evenodd" clip-rule="evenodd" d="M22.7467 38.1068H18.16L14.48 26.8802L10.8 38.1068H6.26667L0 15.3335H5.86667L8.82667 27.3602L12.5067 15.3335H16.48L20.16 27.3602L23.12 15.3335H28.9867L22.7467 38.1068Z" fill="white"/>
<path fill-rule="evenodd" clip-rule="evenodd" d="M37.7067 38.1068V15.3335H53.1733V20.3202H43.28V24.1335H51.7333V29.1202H43.28V33.1202H53.1733V38.1068H37.7067Z" fill="white"/>
<path fill-rule="evenodd" clip-rule="evenodd" d="M63.5467 38.1068V15.3335H69.1467V38.1068H63.5467Z" fill="white"/>
<path fill-rule="evenodd" clip-rule="evenodd" d="M86.64 38.2934C83.4687 38.578 80.3289 37.4796 78.0267 35.28L81.6 31.7067C83.0414 32.8518 84.8561 33.4219 86.6933 33.3067C88.88 33.3067 89.9467 32.56 89.9467 31.2534C89.9726 30.7672 89.8103 30.2897 89.4933 29.92C89.0676 29.5758 88.5462 29.371 88 29.3334L85.3333 28.96C83.6202 28.8187 82.0046 28.1048 80.7467 26.9334C79.6425 25.6797 79.0772 24.0412 79.1733 22.3734C79.1733 18.2134 82.32 15.1734 87.4933 15.1734C90.3133 14.9514 93.0977 15.9182 95.1733 17.84L91.5733 21.3334C90.3858 20.2978 88.8199 19.8049 87.2533 19.9734C85.3067 19.9734 84.5867 21.0934 84.5867 22.08C84.5938 22.4809 84.7564 22.8634 85.04 23.1467C85.4689 23.5483 86.0265 23.7846 86.6133 23.8134L89.28 24.2134C90.9386 24.3234 92.514 24.9798 93.76 26.08C94.9746 27.4448 95.5811 29.2452 95.44 31.0667C95.44 35.76 91.44 38.2934 86.64 38.2934Z" fill="white"/>
<path fill-rule="evenodd" clip-rule="evenodd" d="M111.84 38.2934C108.66 38.5824 105.51 37.4839 103.2 35.2801L106.667 31.7067C108.112 32.8451 109.924 33.4143 111.76 33.3067C113.973 33.3067 115.013 32.5601 115.013 31.2534C115.036 30.7721 114.885 30.2986 114.587 29.9201C114.157 29.5611 113.625 29.3465 113.067 29.3067L110.4 28.9334C108.696 28.7863 107.091 28.0728 105.84 26.9067C104.726 25.6591 104.159 24.0162 104.267 22.3467C104.267 18.1867 107.387 15.1467 112.587 15.1467C115.399 14.9257 118.174 15.8929 120.24 17.8134L116.773 21.3334C115.586 20.2979 114.02 19.8049 112.453 19.9734C110.48 19.9734 109.787 21.0934 109.787 22.0801C109.794 22.481 109.956 22.8634 110.24 23.1467C110.669 23.5483 111.226 23.7846 111.813 23.8134L114.48 24.2134C116.139 24.3234 117.714 24.9798 118.96 26.0801C120.195 27.434 120.813 29.2398 120.667 31.0667C120.64 35.7601 116.64 38.2934 111.84 38.2934Z" fill="white"/>
</svg>
